PathFileType	4	(X/Y/Z)	/home/nbianco/projects/addbio/data/HamnerRunning2013/Processed/subject10//results/MarkerData/run300.trc
DataRate	CameraRate	NumFrames	NumMarkers	Units	OrigDataRate	OrigDataStartFrame	OrigNumFrames
100	100	9	42	m	100	81	217
Frame#	Time	C7			CLAV			LACR			LASI			LCAL			LFAradius			LFAsuperior			LFAulna			LLEL			LMEL			LMT5			LPSI			LTB1			LTB2			LTB3			LTH1			LTH2			LTH3			LTOE			LUA1			LUA2			LUA3			RACR			RASI			RCAL			RFAradius			RFAsuperior			RFAulna			RLEL			RMEL			RMT5			RPSI			RTB1			RTB2			RTB3			RTH1			RTH2			RTH3			RTOE			RUA1			RUA2			RUA3		
		X1	Y1	Z1	X2	Y2	Z2	X3	Y3	Z3	X4	Y4	Z4	X5	Y5	Z5	X6	Y6	Z6	X7	Y7	Z7	X8	Y8	Z8	X9	Y9	Z9	X10	Y10	Z10	X11	Y11	Z11	X12	Y12	Z12	X13	Y13	Z13	X14	Y14	Z14	X15	Y15	Z15	X16	Y16	Z16	X17	Y17	Z17	X18	Y18	Z18	X19	Y19	Z19	X20	Y20	Z20	X21	Y21	Z21	X22	Y22	Z22	X23	Y23	Z23	X24	Y24	Z24	X25	Y25	Z25	X26	Y26	Z26	X27	Y27	Z27	X28	Y28	Z28	X29	Y29	Z29	X30	Y30	Z30	X31	Y31	Z31	X32	Y32	Z32	X33	Y33	Z33	X34	Y34	Z34	X35	Y35	Z35	X36	Y36	Z36	X37	Y37	Z37	X38	Y38	Z38	X39	Y39	Z39	X40	Y40	Z40	X41	Y41	Z41	X42	Y42	Z42

82	1.24	0.884568	1.45466	-0.296508	1.01663	1.34587	-0.287213	0.931515	1.43007	-0.454232	0.938618	0.928905	-0.42475	0.489391	0.436199	-0.352475	1.01742	1.10072	-0.488547	0.927901	1.15569	-0.589407	1.02106	1.06501	-0.545537	0.817667	1.16952	-0.63573	0.783977	1.13945	-0.576779	0.419745	0.283537	-0.465243	0.775096	0.981004	-0.366798	0.79692	0.369463	-0.385691	0.703681	0.405079	-0.443852	0.603504	0.354603	-0.377	0.895708	0.729998	-0.465875	0.942426	0.623731	-0.456207	0.881533	0.521305	-0.443721	0.446161	0.223695	-0.375554	0.868716	1.32961	-0.545278	0.806975	1.2722	-0.5238	0.846824	1.2436	-0.597906	0.929704	1.41286	-0.151905	0.931498	0.961546	-0.185169	0.842762	0.108289	-0.301811	0.938477	1.03823	-0.0824577	0.835881	1.09603	-0.00722934	0.893642	0.987761	-0.0578431	0.740871	1.16283	-0.00094069	0.71047	1.14973	-0.0715396	1.01076	0.0504066	-0.207054	0.763717	0.988059	-0.26829	1.04301	0.362833	-0.24677	0.993019	0.29174	-0.203261	0.976632	0.188286	-0.275572	0.936309	0.73011	-0.127936	1.02214	0.675898	-0.146576	1.00066	0.569916	-0.166225	1.0651	0.0685719	-0.307339	0.859724	1.31563	-0.05528	0.778366	1.28225	-0.0863038	0.789282	1.21335	-0.0248604
83	1.25	0.883685	1.45153	-0.297889	1.01525	1.34155	-0.288162	0.930931	1.42637	-0.454625	0.935577	0.925608	-0.424878	0.512169	0.43742	-0.352329	1.00709	1.09238	-0.492572	0.917515	1.1518	-0.589191	1.00741	1.05905	-0.550651	0.806339	1.16817	-0.632327	0.773265	1.13877	-0.572394	0.449042	0.283037	-0.46665	0.772201	0.977864	-0.367015	0.82175	0.368462	-0.384668	0.729107	0.403776	-0.442873	0.628475	0.355005	-0.375905	0.900912	0.727424	-0.466157	0.956316	0.623943	-0.45484	0.901401	0.519252	-0.443607	0.471647	0.2237	-0.375756	0.863931	1.32738	-0.544717	0.801512	1.27122	-0.519403	0.837582	1.24193	-0.595069	0.929565	1.40864	-0.152251	0.928443	0.959677	-0.184321	0.812746	0.108575	-0.301459	0.953181	1.03034	-0.0827298	0.852333	1.08704	-0.00512689	0.909539	0.979387	-0.0560031	0.755496	1.15095	0.00556576	0.721881	1.13618	-0.0628552	0.980394	0.0502663	-0.20632	0.759961	0.985103	-0.267743	1.02502	0.35442	-0.246788	0.971587	0.285481	-0.204456	0.950107	0.183852	-0.276178	0.930779	0.725535	-0.128708	1.01377	0.666572	-0.146795	0.988568	0.561956	-0.168467	1.03511	0.0677009	-0.307099	0.864549	1.307	-0.0559328	0.783166	1.27088	-0.0820908	0.800375	1.2034	-0.0207131
84	1.26	0.881742	1.4491	-0.298333	1.01392	1.33818	-0.288949	0.930117	1.42409	-0.454834	0.9323	0.92407	-0.425773	0.534764	0.436764	-0.353082	0.996652	1.08568	-0.496387	0.907679	1.14836	-0.588835	0.993883	1.05467	-0.55538	0.795514	1.16791	-0.628562	0.763254	1.13938	-0.567598	0.480582	0.279106	-0.467588	0.769398	0.976467	-0.366499	0.847168	0.369396	-0.383369	0.755168	0.403368	-0.441657	0.654379	0.354946	-0.374673	0.905531	0.726485	-0.466569	0.970008	0.626269	-0.454138	0.92158	0.519405	-0.443371	0.499596	0.221236	-0.374753	0.859259	1.32631	-0.54423	0.796516	1.27197	-0.515581	0.829038	1.24128	-0.592197	0.930081	1.40524	-0.152454	0.925902	0.957042	-0.184729	0.782544	0.108995	-0.30141	0.968414	1.02478	-0.0843846	0.869211	1.08007	-0.00342129	0.926342	0.973425	-0.054683	0.770836	1.1411	0.0116148	0.734253	1.12461	-0.0545051	0.949864	0.0505036	-0.205937	0.755354	0.983802	-0.265493	1.00399	0.347762	-0.249826	0.950055	0.280047	-0.206409	0.922658	0.180751	-0.278034	0.92366	0.721257	-0.129434	1.00441	0.65759	-0.147265	0.9759	0.554865	-0.170179	1.00488	0.0672338	-0.307148	0.868486	1.30099	-0.0572368	0.788322	1.26084	-0.078492	0.811982	1.19533	-0.0169177
85	1.27	0.879743	1.44785	-0.297554	1.01267	1.33622	-0.289714	0.928565	1.42331	-0.454949	0.928908	0.924214	-0.427101	0.557057	0.433891	-0.35456	0.986624	1.08039	-0.500116	0.898286	1.14565	-0.588094	0.980745	1.05156	-0.560032	0.785228	1.16884	-0.624652	0.753974	1.1413	-0.562639	0.513148	0.272191	-0.467859	0.766507	0.976484	-0.365588	0.87274	0.372545	-0.381466	0.781314	0.403867	-0.440485	0.680768	0.354385	-0.373527	0.909947	0.727466	-0.467072	0.982551	0.631224	-0.454276	0.94118	0.522373	-0.442966	0.52995	0.216606	-0.372875	0.854559	1.32632	-0.543631	0.791659	1.27388	-0.512527	0.821213	1.24155	-0.589361	0.931004	1.40298	-0.152548	0.923529	0.954235	-0.186021	0.752306	0.109634	-0.301187	0.983778	1.02244	-0.0871563	0.885948	1.07534	-0.00199941	0.944009	0.970371	-0.0544069	0.786342	1.13351	0.0170859	0.747378	1.11535	-0.0469615	0.919354	0.0506844	-0.205662	0.750317	0.984031	-0.262565	0.980686	0.343535	-0.255053	0.927897	0.276434	-0.207594	0.894941	0.178975	-0.279436	0.915645	0.718044	-0.130069	0.994809	0.651134	-0.148043	0.963583	0.549751	-0.170779	0.974569	0.0671921	-0.307097	0.872066	1.29757	-0.0582266	0.794198	1.25245	-0.0754127	0.823748	1.18931	-0.0134528
86	1.28	0.878539	1.44799	-0.296418	1.0115	1.33582	-0.290634	0.926385	1.42382	-0.455044	0.925488	0.925803	-0.428615	0.578955	0.428623	-0.356373	0.977033	1.07629	-0.50364	0.889017	1.14426	-0.586825	0.967946	1.04952	-0.564517	0.775361	1.17108	-0.620833	0.744957	1.14459	-0.557668	0.545867	0.262676	-0.467197	0.763479	0.977631	-0.364548	0.898134	0.377897	-0.378909	0.807074	0.40538	-0.439457	0.707313	0.353295	-0.372606	0.914323	0.730307	-0.467635	0.993525	0.638702	-0.454938	0.959501	0.528313	-0.442327	0.562686	0.210068	-0.370403	0.849842	1.3275	-0.542867	0.786842	1.27672	-0.509968	0.813957	1.24292	-0.586695	0.9319	1.40216	-0.152723	0.920849	0.952244	-0.187709	0.722282	0.110506	-0.300701	0.999109	1.02396	-0.090591	0.902501	1.07328	-0.00106723	0.962434	0.970623	-0.055696	0.80176	1.12831	0.0218593	0.761054	1.10851	-0.0404446	0.889072	0.0506006	-0.205311	0.746105	0.985422	-0.260242	0.956195	0.341274	-0.260475	0.904379	0.274516	-0.207337	0.867433	0.177942	-0.279426	0.907114	0.716089	-0.130613	0.984869	0.647217	-0.148869	0.950756	0.546464	-0.170463	0.944415	0.0672546	-0.306778	0.876182	1.29629	-0.0583144	0.801069	1.24615	-0.0727998	0.835519	1.18551	-0.0103847
87	1.29	0.878112	1.44932	-0.295946	1.01047	1.33685	-0.291806	0.923949	1.42533	-0.455245	0.922199	0.928558	-0.430104	0.600494	0.420939	-0.3582	0.96753	1.07337	-0.506514	0.879509	1.1447	-0.585341	0.95519	1.04871	-0.568398	0.765621	1.17475	-0.617271	0.735826	1.14925	-0.552892	0.578483	0.250912	-0.465557	0.760521	0.979724	-0.363486	0.923098	0.385164	-0.375985	0.832045	0.408001	-0.438478	0.733847	0.351678	-0.371957	0.918595	0.734736	-0.468227	1.00309	0.648084	-0.455697	0.976247	0.536721	-0.441439	0.597655	0.201842	-0.367538	0.845073	1.32989	-0.542049	0.782147	1.28064	-0.507466	0.806919	1.24565	-0.58436	0.932479	1.40293	-0.153131	0.917681	0.951754	-0.189348	0.692555	0.111645	-0.300178	1.01428	1.02938	-0.0943854	0.918959	1.07435	-0.000963594	0.981195	0.974355	-0.0587341	0.817016	1.12557	0.0258111	0.774941	1.10402	-0.0349039	0.858978	0.0503887	-0.204848	0.744208	0.987596	-0.259481	0.931459	0.340178	-0.264451	0.879427	0.273521	-0.206257	0.840093	0.177302	-0.27842	0.898241	0.715195	-0.13112	0.974168	0.64453	-0.149527	0.936215	0.544261	-0.169893	0.914467	0.06724	-0.306257	0.881529	1.29666	-0.05762	0.808793	1.24235	-0.0704634	0.847222	1.18407	-0.00784824
88	1.3	0.877785	1.45152	-0.296367	1.00964	1.33909	-0.293214	0.921502	1.42765	-0.455679	0.919362	0.932205	-0.431266	0.621834	0.410915	-0.359881	0.957769	1.07185	-0.5083	0.869514	1.14717	-0.584261	0.942196	1.04952	-0.571302	0.755642	1.17998	-0.61401	0.726546	1.15524	-0.548556	0.611406	0.237329	-0.463225	0.757977	0.982651	-0.362536	0.947395	0.393885	-0.373118	0.855866	0.411618	-0.437411	0.760318	0.349571	-0.371489	0.922671	0.740537	-0.468882	1.01171	0.658816	-0.456326	0.991491	0.546853	-0.440429	0.634631	0.192221	-0.364499	0.840091	1.3335	-0.54133	0.777607	1.28574	-0.50477	0.799626	1.24992	-0.582386	0.93277	1.40528	-0.153836	0.914475	0.952723	-0.19054	0.663045	0.113197	-0.299771	1.02901	1.03822	-0.0984775	0.935138	1.07859	-0.00182306	0.999599	0.981411	-0.063195	0.831972	1.12524	0.0288534	0.788651	1.1018	-0.0302432	0.828839	0.0502115	-0.204343	0.745091	0.990305	-0.26043	0.906975	0.339651	-0.266324	0.853459	0.272832	-0.205375	0.81256	0.177134	-0.277363	0.889084	0.715078	-0.131701	0.962227	0.64191	-0.150042	0.919485	0.542542	-0.169701	0.884575	0.0672069	-0.305672	0.888187	1.29841	-0.0567679	0.81687	1.24131	-0.0680044	0.858724	1.18489	-0.00595057
89	1.31	0.877011	1.45444	-0.297185	1.009	1.34238	-0.294794	0.919061	1.43067	-0.456388	0.91739	0.936491	-0.43175	0.643183	0.398666	-0.361296	0.947703	1.07214	-0.509076	0.858989	1.15162	-0.584009	0.928933	1.05235	-0.573283	0.745212	1.18682	-0.611004	0.717231	1.16254	-0.54476	0.645455	0.222453	-0.46059	0.7561	0.986347	-0.361969	0.970742	0.403539	-0.37069	0.878237	0.415841	-0.436222	0.786705	0.347008	-0.371004	0.926605	0.747615	-0.469733	1.01976	0.670745	-0.456755	1.00544	0.558222	-0.43958	0.673486	0.18168	-0.361497	0.834718	1.33832	-0.540746	0.773091	1.29195	-0.501881	0.791706	1.2558	-0.580638	0.933062	1.40915	-0.154858	0.912041	0.954585	-0.190979	0.633732	0.11547	-0.299369	1.04287	1.04974	-0.102847	0.950575	1.08555	-0.00343227	1.01703	0.991331	-0.0683945	0.846343	1.12716	0.0309864	0.801907	1.10178	-0.0264997	0.798511	0.0500476	-0.203893	0.747473	0.993453	-0.262346	0.882858	0.339296	-0.266084	0.826902	0.272505	-0.20513	0.784613	0.177692	-0.276748	0.879473	0.71557	-0.132496	0.948706	0.63914	-0.150552	0.90088	0.541267	-0.170141	0.854585	0.0672665	-0.305143	0.895597	1.30159	-0.056391	0.824831	1.24297	-0.0650173	0.869826	1.18771	-0.00471909
90	1.32	0.875861	1.4581	-0.297947	1.00851	1.34665	-0.296525	0.916541	1.43437	-0.457301	0.916539	0.941206	-0.431386	0.664754	0.384321	-0.362247	0.937602	1.07474	-0.5096	0.848114	1.15789	-0.584528	0.91566	1.05721	-0.574763	0.734413	1.19518	-0.608168	0.707946	1.17116	-0.541381	0.681438	0.206853	-0.457843	0.75492	0.990812	-0.361999	0.992802	0.413629	-0.368948	0.898993	0.420118	-0.434985	0.812947	0.34398	-0.370321	0.930578	0.755883	-0.470912	1.02731	0.683917	-0.456873	1.01823	0.570651	-0.439198	0.71424	0.170883	-0.358547	0.828894	1.34432	-0.540179	0.768412	1.29898	-0.498884	0.783109	1.26321	-0.578923	0.933687	1.41431	-0.156207	0.910862	0.956815	-0.190595	0.604811	0.118865	-0.298772	1.05555	1.06328	-0.107332	0.964822	1.09452	-0.00540258	1.03321	1.00351	-0.0736374	0.859817	1.13105	0.0323133	0.814566	1.10383	-0.0237855	0.768066	0.0497999	-0.203575	0.749263	0.997078	-0.264136	0.859049	0.338813	-0.263896	0.80003	0.273152	-0.20527	0.756411	0.179192	-0.27646	0.869115	0.716698	-0.133602	0.933751	0.636806	-0.151176	0.881118	0.540923	-0.17107	0.824503	0.0674198	-0.304777	0.902909	1.30633	-0.0567527	0.832524	1.24694	-0.0614345	0.880364	1.19222	-0.00412512
